<svg xmlns="http://www.w3.org/2000/svg" viewBox="0 0 128 128">
  <!-- Slide structure -->
  <!-- Slide frame/ladder (left side) -->
  <rect x="12" y="32" width="6" height="72" fill="#607D8B"/>
  <rect x="28" y="32" width="6" height="72" fill="#607D8B"/>
  <!-- Ladder rungs -->
  <rect x="12" y="44" width="22" height="5" fill="#607D8B"/>
  <rect x="12" y="58" width="22" height="5" fill="#607D8B"/>
  <rect x="12" y="72" width="22" height="5" fill="#607D8B"/>
  <rect x="12" y="86" width="22" height="5" fill="#607D8B"/>
  <!-- Slide surface -->
  <polygon points="34,32 34,42 72,104 62,104" fill="#FF9800"/>
  <!-- Slide rails -->
  <polygon points="34,32 38,32 76,104 72,104" fill="#4CAF50"/>
  <polygon points="30,32 34,32 62,104 58,104" fill="#4CAF50"/>
  
  <!-- Swing structure -->
  <!-- A-frame left leg -->
  <polygon points="80,104 86,104 100,24 94,24" fill="#607D8B"/>
  <!-- A-frame right leg -->
  <polygon points="108,24 114,24 120,104 114,104" fill="#607D8B"/>
  <!-- Top bar -->
  <rect x="92" y="20" width="24" height="8" rx="2" fill="#607D8B"/>
  <!-- Swing chains -->
  <rect x="98" y="28" width="3" height="48" fill="#795548"/>
  <rect x="111" y="28" width="3" height="48" fill="#795548"/>
  <!-- Swing seat -->
  <rect x="94" y="76" width="24" height="6" rx="2" fill="#795548"/>
</svg>
